<svg xmlns="http://www.w3.org/2000/svg" viewBox="0 0 480 270" width="480" height="270">
<rect width="480" height="270" rx="14" fill="#0D1117"/>
<text x="240.0" y="30" text-anchor="middle" font-family="Fira Code,Consolas,monospace" font-size="16" font-weight="700" fill="#E63946">Contributions by weekday</text>
<text x="240.0" y="48" text-anchor="middle" font-family="Fira Code,Consolas,monospace" font-size="11" fill="#8B949E">static · last 12 months</text>
<rect x="38.4" y="139.0" width="34" height="87.0" rx="4" fill="#8b0000"/>
<text x="55.4" y="134.0" text-anchor="middle" font-family="Fira Code,Consolas,monospace" font-size="11" fill="#C9D1D9">23</text>
<text x="55.4" y="242" text-anchor="middle" font-family="Fira Code,Consolas,monospace" font-size="11" fill="#8B949E">Sun</text>
<rect x="101.3" y="131.4" width="34" height="94.6" rx="4" fill="#8b0000"/>
<text x="118.3" y="126.4" text-anchor="middle" font-family="Fira Code,Consolas,monospace" font-size="11" fill="#C9D1D9">25</text>
<text x="118.3" y="242" text-anchor="middle" font-family="Fira Code,Consolas,monospace" font-size="11" fill="#8B949E">Mon</text>
<rect x="164.1" y="131.4" width="34" height="94.6" rx="4" fill="#8b0000"/>
<text x="181.1" y="126.4" text-anchor="middle" font-family="Fira Code,Consolas,monospace" font-size="11" fill="#C9D1D9">25</text>
<text x="181.1" y="242" text-anchor="middle" font-family="Fira Code,Consolas,monospace" font-size="11" fill="#8B949E">Tue</text>
<rect x="227.0" y="127.6" width="34" height="98.4" rx="4" fill="#8b0000"/>
<text x="244.0" y="122.6" text-anchor="middle" font-family="Fira Code,Consolas,monospace" font-size="11" fill="#C9D1D9">26</text>
<text x="244.0" y="242" text-anchor="middle" font-family="Fira Code,Consolas,monospace" font-size="11" fill="#8B949E">Wed</text>
<rect x="289.9" y="150.3" width="34" height="75.7" rx="4" fill="#8b0000"/>
<text x="306.9" y="145.3" text-anchor="middle" font-family="Fira Code,Consolas,monospace" font-size="11" fill="#C9D1D9">20</text>
<text x="306.9" y="242" text-anchor="middle" font-family="Fira Code,Consolas,monospace" font-size="11" fill="#8B949E">Thu</text>
<rect x="352.7" y="180.6" width="34" height="45.4" rx="4" fill="#8b0000"/>
<text x="369.7" y="175.6" text-anchor="middle" font-family="Fira Code,Consolas,monospace" font-size="11" fill="#C9D1D9">12</text>
<text x="369.7" y="242" text-anchor="middle" font-family="Fira Code,Consolas,monospace" font-size="11" fill="#8B949E">Fri</text>
<rect x="415.6" y="86.0" width="34" height="140.0" rx="4" fill="#ff4d4d"/>
<text x="432.6" y="81.0" text-anchor="middle" font-family="Fira Code,Consolas,monospace" font-size="11" fill="#C9D1D9">37</text>
<text x="432.6" y="242" text-anchor="middle" font-family="Fira Code,Consolas,monospace" font-size="11" fill="#8B949E">Sat</text>
<line x1="20" y1="226" x2="460" y2="226" stroke="#30363d"/></svg>